<?xml version="1.0" standalone="no"?>
<!DOCTYPE svg PUBLIC "-//W3C//DTD SVG 20010904//EN"
 "http://www.w3.org/TR/2001/REC-SVG-20010904/DTD/svg10.dtd">
<svg version="1.0" xmlns="http://www.w3.org/2000/svg"
 width="800.000000pt" height="800.000000pt" viewBox="0 0 800.000000 800.000000"
 preserveAspectRatio="xMidYMid meet">
<metadata>
Created by potrace 1.16, written by Peter Selinger 2001-2019
</metadata>
<g transform="translate(0.000000,800.000000) scale(0.100000,-0.100000)"
fill="#000000" stroke="none">
<path d="M3645 7880 c-11 -5 -42 -9 -70 -9 -27 -1 -105 -10 -173 -21 -688
-112 -1306 -386 -1846 -817 -150 -120 -417 -381 -542 -532 -490 -588 -800
-1308 -886 -2058 -15 -127 -15 -749 0 -876 102 -883 507 -1711 1143 -2332 304
-297 574 -493 942 -685 407 -212 888 -359 1347 -412 123 -15 747 -15 870 0
679 78 1335 339 1890 751 216 160 540 471 698 669 376 472 641 1015 766 1572
78 348 89 457 89 875 0 346 -6 447 -42 649 -149 831 -525 1547 -1112 2121
-305 298 -573 493 -942 685 -407 212 -891 360 -1347 412 -117 14 -757 20 -785
8z m800 -164 c251 -32 519 -94 759 -176 1191 -407 2105 -1396 2411 -2610 85
-336 110 -549 110 -925 0 -299 -10 -432 -51 -655 -141 -769 -491 -1438 -1039
-1985 -548 -549 -1216 -898 -1985 -1039 -223 -41 -356 -51 -655 -51 -376 0
-589 25 -925 110 -1315 332 -2364 1381 -2695 2695 -85 335 -110 549 -110 925
0 376 25 590 110 925 306 1213 1220 2203 2411 2610 258 88 565 157 804 179 63
6 131 13 150 15 81 9 592 -4 705 -18z"/>
<path d="M2521 5909 c-151 -30 -325 -121 -455 -240 -124 -113 -383 -500 -596
-893 l-43 -78 39 25 c329 207 727 203 1054 -12 69 -45 238 -207 339 -325 98
-115 349 -443 912 -1191 470 -624 560 -735 703 -873 134 -128 251 -194 414
-233 117 -28 321 -23 427 11 153 48 334 164 431 277 74 84 184 239 274 383 80
130 248 417 281 483 l20 38 -38 -24 c-265 -167 -595 -196 -885 -76 -165 68
-346 222 -540 459 -47 58 -366 478 -709 935 -342 456 -662 874 -709 930 -210
242 -357 346 -563 395 -88 21 -271 26 -356 9z"/>
<path d="M6842 5074 c-86 -43 -132 -121 -132 -221 1 -242 318 -333 445 -129
24 40 30 62 33 121 3 61 0 79 -21 121 -30 60 -58 86 -117 113 -65 30 -143 28
-208 -5z"/>
<path d="M1806 4744 c-135 -30 -269 -97 -389 -194 -137 -111 -148 -130 -473
-768 -129 -253 -142 -293 -106 -325 45 -41 59 -31 330 235 296 290 428 411
599 549 132 106 327 240 409 282 66 34 169 57 250 57 35 0 64 4 64 9 0 24
-164 109 -277 143 -93 27 -309 34 -407 12z"/>
<path d="M6758 4403 c-18 -16 -139 -120 -268 -233 -400 -350 -581 -495 -771
-620 -176 -116 -255 -143 -400 -138 -71 2 -85 1 -77 -10 27 -32 182 -115 268
-145 91 -30 102 -32 255 -32 140 0 169 3 235 23 103 33 210 89 307 161 96 72
151 132 202 221 68 117 371 718 371 735 0 22 -45 65 -69 65 -11 0 -34 -12 -53
-27z"/>
</g>
</svg>
