<?xml version="1.0" encoding="utf-8"?>
<!-- Generator: Adobe Illustrator 25.2.0, SVG Export Plug-In . SVG Version: 6.00 Build 0)  -->
<svg version="1.1" id="Layer_1" xmlns="http://www.w3.org/2000/svg" xmlns:xlink="http://www.w3.org/1999/xlink" x="0px" y="0px"
	 viewBox="0 0 85.04 85.04" style="enable-background:new 0 0 85.04 85.04;" xml:space="preserve">
<style type="text/css">
	.st0{clip-path:url(#SVGID_2_);}
	.st1{fill:#012A66;}
	.st2{fill:#015BDF;}
	.st3{fill:#C1C2C2;}
	.st4{fill:#454647;}
	.st5{fill:#0052CA;}
	.st6{fill:#001B42;}
	.st7{fill:#0148B2;}
	.st8{fill:#7D3DAF;}
	.st9{fill:#FFFFFF;}
</style>
<g>
	<g>
		<defs>
			<circle id="SVGID_1_" cx="42.52" cy="42.52" r="42.38"/>
		</defs>
		<clipPath id="SVGID_2_">
			<use xlink:href="#SVGID_1_"  style="overflow:visible;"/>
		</clipPath>
		<g class="st0">
			<g>
				<path class="st1" d="M-0.1,0.68h0.23C0.09,0.75,0.01,0.87-0.04,0.93L-0.1,0.87V0.68z"/>
				<path class="st1" d="M-0.1,85.73l0.09-0.03c0.04,0.04,0.11,0.13,0.15,0.17l-0.06,0.07H-0.1V85.73z"/>
			</g>
			<g>
				<path class="st2" d="M0.13,0.68h24.16l0.27,0.07c-1.62,1.14-3.21,2.33-4.62,3.73c-2.92,2.84-5.17,6.31-6.84,10.02
					c-2.74,6.04-3.99,12.67-4.15,19.28c-0.13,5.31,0.55,10.65,2.03,15.75c0.98,3.4,2.32,6.72,4.2,9.72
					c0.45,0.74,1.03,1.42,1.28,2.27c0.38,1.23,0.18,2.55-0.14,3.78c-0.49,1.87-1.54,3.54-2.84,4.96c-0.24,0.2-0.08,0.48,0.12,0.64
					c0.73,0.75,1.47,1.49,2.2,2.25c1.34,1.49,2.8,2.86,4.17,4.31c0.96,1.09,2.03,2.07,3.02,3.13c0.99,1.14,2.12,2.14,3.11,3.28
					c0.57,0.67,1.3,1.21,1.79,1.95c-7.32,0.02-14.64,0-21.95,0.01c-1.93-0.05-3.86,0.1-5.79,0.04c-0.04-0.04-0.11-0.13-0.15-0.17
					c-0.05-4.55-0.01-9.11-0.02-13.66c0.08-1.43,0.04-2.87,0.05-4.3c0-16.98,0-33.95,0-50.93c0.02-0.74-0.02-1.48-0.05-2.22
					c-0.01-4.55,0.01-9.1-0.01-13.65C0.01,0.87,0.09,0.75,0.13,0.68z"/>
			</g>
			<g>
				<path class="st3" d="M24.28,0.68h60.68L84.9,0.77c-1.68-0.04-3.35-0.01-5.03-0.02c-1.11,0.09-2.22,0.05-3.33,0.06
					c-16.85,0-33.7,0-50.55,0c-0.48,0-0.96,0.04-1.44-0.06L24.28,0.68z"/>
			</g>
			<g>
				<path class="st4" d="M84.96,0.68h0.19V0.9c-0.06-0.03-0.19-0.1-0.25-0.13L84.96,0.68z"/>
			</g>
			<g>
				<path class="st5" d="M-0.1,0.87l0.07,0.06c0.02,4.55,0,9.1,0.01,13.65C0,15.32,0.04,16.06,0.02,16.8c0,16.98,0,33.95,0,50.93
					c-0.01,1.43,0.03,2.87-0.05,4.3c0.01,4.55-0.03,9.11,0.02,13.66l-0.09,0.03V0.87z"/>
			</g>
			<g>
				<path class="st2" d="M80.61,67.87c1.66-1.22,3.16-2.64,4.55-4.15V85.7c-0.06,0.04-0.18,0.13-0.24,0.17
					c-2.05-0.02-4.11,0.05-6.16-0.05c-16.95,0.01-33.91,0-50.87,0c-0.49-0.75-1.22-1.28-1.79-1.95c-0.99-1.14-2.12-2.14-3.11-3.28
					c-0.99-1.06-2.06-2.04-3.02-3.13c-1.38-1.45-2.84-2.82-4.17-4.31c-0.73-0.76-1.47-1.5-2.2-2.25c3.48,0.31,7-0.31,10.21-1.64
					c0.32-0.12,0.69-0.34,1-0.09c3.18,2,6.64,3.54,10.24,4.63c5.39,1.62,11.02,2.39,16.65,2.42c5.53-0.02,11.06-0.74,16.38-2.29
					C72.53,72.6,76.84,70.63,80.61,67.87z"/>
			</g>
			<g>
				<path class="st6" d="M84.91,85.87c0.06-0.04,0.18-0.13,0.24-0.17v0.24h-0.18L84.91,85.87z"/>
			</g>
			<g>
				<path class="st7" d="M0.14,85.87c1.93,0.06,3.86-0.09,5.79-0.04c7.32-0.01,14.64,0.01,21.95-0.01c16.95-0.01,33.91,0,50.87,0
					c2.05,0.11,4.11,0.04,6.16,0.05l0.06,0.07H0.08L0.14,85.87z"/>
			</g>
			<rect x="-21.97" y="-11.87" class="st8" width="134.27" height="108.73"/>
		</g>
	</g>
	<g>
		<g>
			<path class="st9" d="M63.47,48.15c-1.34,11.04-9.22,11.73-10.68,12.21c-0.62,0.21-6.37,1.67-13.61,1.19l-7.83,8.68l-0.01-10.01
				l-0.06-0.01c-10.53-2.99-10.17-14.23-10.06-20.11c0.12-5.89,1.2-10.72,4.41-13.96c5.76-5.35,17.66-4.55,17.66-4.55
				c10.04,0.04,14.85,3.14,15.96,4.18C62.96,29,64.85,36.77,63.47,48.15 M62,23c-1.32-1.24-6.64-5.2-18.51-5.25
				c0,0-13.99-0.87-20.82,5.54c-3.79,3.89-5.13,9.58-5.28,16.64c-0.14,7.06-0.32,20.28,12.13,23.86h0.01v5.47
				c0,0-0.08,2.22,1.35,2.66c1.72,0.55,2.73-1.13,4.38-2.95c0.91-0.99,2.15-2.45,3.09-3.57c8.52,0.73,15.07-0.95,15.8-1.19
				c1.72-0.58,11.44-1.85,13.03-15.07C68.79,35.5,66.37,26.89,62,23"/>
			<path class="st9" d="M54.4,49.8c0,0-1.6-1.36-2.37-1.94c-0.73-0.55-1.9-1.3-2.55-1.67c-1.17-0.66-2.37-0.25-2.87,0.41l-1.03,1.32
				c-0.52,0.68-1.34,0.55-1.54,0.51c-1.52-0.39-3.13-1.32-4.78-2.92c-1.67-1.61-2.69-3.29-3.05-5.05l-0.03-0.11
				c-0.1-0.72,0.03-1.05,0.32-1.54l0.06-0.04c0.69-0.65,1.99-1.43,2.15-2.18c0.51-1.3-1.7-4.01-2-4.48c0,0-1.6-2.11-2.16-2.52
				c-0.61-0.51-1.56-0.8-2.52-0.21l-0.06,0.04c-2.76,1.86-3.75,2.94-3.47,4.52l0.14,0.65c1.39,4.4,4.09,9.08,8.11,13.26
				c3.97,4.12,8.27,6.59,12.5,8.3c1.1,0.37,2.25,0.06,3.42-0.95l0.01-0.01c0.9-0.84,1.61-1.74,2.14-2.7v-0.01
				C55.34,51.41,55.16,50.45,54.4,49.8"/>
			<path class="st9" d="M47.81,40.16c-0.17,0-0.3-0.14-0.32-0.3c-0.06-1.14-0.36-2.01-0.91-2.59c-0.55-0.58-1.36-0.9-2.44-0.96
				c-0.18-0.01-0.3-0.17-0.3-0.34c0.01-0.18,0.15-0.32,0.33-0.3c1.24,0.07,2.19,0.45,2.85,1.16c0.66,0.7,1.03,1.71,1.09,3.02
				c0.01,0.18-0.12,0.33-0.3,0.34l0,0"/>
			<path class="st9" d="M50.94,41.24L50.94,41.24c-0.18,0-0.32-0.15-0.32-0.33c0.06-2.19-0.59-4.04-1.9-5.5
				c-0.65-0.73-1.45-1.31-2.36-1.71c-0.91-0.41-1.99-0.66-3.16-0.74c-0.18-0.01-0.3-0.17-0.29-0.34c0.01-0.18,0.17-0.32,0.34-0.3
				c2.52,0.19,4.52,1.09,5.94,2.67c1.42,1.59,2.12,3.6,2.07,5.96C51.26,41.1,51.12,41.24,50.94,41.24"/>
			<path class="st9" d="M54.15,42.53c-0.18,0-0.32-0.14-0.32-0.32c-0.01-1.93-0.3-3.68-0.87-5.2c-0.57-1.5-1.41-2.83-2.51-3.94
				c-1.1-1.1-2.37-1.94-3.74-2.51c-1.38-0.57-2.91-0.85-4.56-0.85c-0.18,0-0.32-0.15-0.32-0.33s0.14-0.32,0.32-0.32l0,0
				c3.47,0.03,6.41,1.21,8.74,3.54c1.17,1.17,2.07,2.58,2.66,4.18c0.59,1.59,0.9,3.42,0.91,5.43
				C54.47,42.38,54.33,42.52,54.15,42.53L54.15,42.53z"/>
		</g>
	</g>
</g>
</svg>
