<?xml version="1.0" encoding="utf-8"?>
<!-- Generator: Adobe Illustrator 25.2.0, SVG Export Plug-In . SVG Version: 6.00 Build 0)  -->
<svg version="1.1" id="Layer_1" xmlns="http://www.w3.org/2000/svg" xmlns:xlink="http://www.w3.org/1999/xlink" x="0px" y="0px"
	 viewBox="0 0 85.04 85.04" style="enable-background:new 0 0 85.04 85.04;" xml:space="preserve">
<style type="text/css">
	.st0{clip-path:url(#SVGID_2_);}
	.st1{fill:#012A66;}
	.st2{fill:#015BDF;}
	.st3{fill:#C1C2C2;}
	.st4{fill:#454647;}
	.st5{fill:#0052CA;}
	.st6{fill:#001B42;}
	.st7{fill:#0148B2;}
	.st8{fill:#FDFEFE;}
</style>
<g>
	<g>
		<defs>
			<circle id="SVGID_1_" cx="42.52" cy="42.52" r="42.38"/>
		</defs>
		<clipPath id="SVGID_2_">
			<use xlink:href="#SVGID_1_"  style="overflow:visible;"/>
		</clipPath>
		<g class="st0">
			<g>
				<path class="st1" d="M-0.1,0.68h0.23C0.09,0.75,0.01,0.87-0.04,0.93L-0.1,0.87V0.68z"/>
				<path class="st1" d="M-0.1,85.73l0.09-0.03c0.04,0.04,0.11,0.13,0.15,0.17l-0.06,0.07H-0.1V85.73z"/>
			</g>
			<g>
				<path class="st2" d="M0.13,0.68h24.16l0.27,0.07c-1.62,1.14-3.21,2.33-4.62,3.73c-2.92,2.84-5.17,6.31-6.84,10.02
					c-2.74,6.04-3.99,12.67-4.15,19.28c-0.13,5.31,0.55,10.65,2.03,15.75c0.98,3.4,2.32,6.72,4.2,9.72
					c0.45,0.74,1.03,1.42,1.28,2.27c0.38,1.23,0.18,2.55-0.14,3.78c-0.49,1.87-1.54,3.54-2.84,4.96c-0.24,0.2-0.08,0.48,0.12,0.64
					c0.73,0.75,1.47,1.49,2.2,2.25c1.34,1.49,2.8,2.86,4.17,4.31c0.96,1.09,2.03,2.07,3.02,3.13c0.99,1.14,2.12,2.14,3.11,3.28
					c0.57,0.67,1.3,1.21,1.79,1.95c-7.32,0.02-14.64,0-21.95,0.01c-1.93-0.05-3.86,0.1-5.79,0.04c-0.04-0.04-0.11-0.13-0.15-0.17
					c-0.05-4.55-0.01-9.11-0.02-13.66c0.08-1.43,0.04-2.87,0.05-4.3c0-16.98,0-33.95,0-50.93c0.02-0.74-0.02-1.48-0.05-2.22
					c-0.01-4.55,0.01-9.1-0.01-13.65C0.01,0.87,0.09,0.75,0.13,0.68z"/>
			</g>
			<g>
				<path class="st3" d="M24.28,0.68h60.68L84.9,0.77c-1.68-0.04-3.35-0.01-5.03-0.02c-1.11,0.09-2.22,0.05-3.33,0.06
					c-16.85,0-33.7,0-50.55,0c-0.48,0-0.96,0.04-1.44-0.06L24.28,0.68z"/>
			</g>
			<g>
				<path class="st4" d="M84.96,0.68h0.19V0.9c-0.06-0.03-0.19-0.1-0.25-0.13L84.96,0.68z"/>
			</g>
			<g>
				<path class="st5" d="M-0.1,0.87l0.07,0.06c0.02,4.55,0,9.1,0.01,13.65C0,15.32,0.04,16.06,0.02,16.8c0,16.98,0,33.95,0,50.93
					c-0.01,1.43,0.03,2.87-0.05,4.3c0.01,4.55-0.03,9.11,0.02,13.66l-0.09,0.03V0.87z"/>
			</g>
			<g>
				<path class="st2" d="M80.61,67.87c1.66-1.22,3.16-2.64,4.55-4.15V85.7c-0.06,0.04-0.18,0.13-0.24,0.17
					c-2.05-0.02-4.11,0.05-6.16-0.05c-16.95,0.01-33.91,0-50.87,0c-0.49-0.75-1.22-1.28-1.79-1.95c-0.99-1.14-2.12-2.14-3.11-3.28
					c-0.99-1.06-2.06-2.04-3.02-3.13c-1.38-1.45-2.84-2.82-4.17-4.31c-0.73-0.76-1.47-1.5-2.2-2.25c3.48,0.31,7-0.31,10.21-1.64
					c0.32-0.12,0.69-0.34,1-0.09c3.18,2,6.64,3.54,10.24,4.63c5.39,1.62,11.02,2.39,16.65,2.42c5.53-0.02,11.06-0.74,16.38-2.29
					C72.53,72.6,76.84,70.63,80.61,67.87z"/>
			</g>
			<g>
				<path class="st6" d="M84.91,85.87c0.06-0.04,0.18-0.13,0.24-0.17v0.24h-0.18L84.91,85.87z"/>
			</g>
			<g>
				<path class="st7" d="M0.14,85.87c1.93,0.06,3.86-0.09,5.79-0.04c7.32-0.01,14.64,0.01,21.95-0.01c16.95-0.01,33.91,0,50.87,0
					c2.05,0.11,4.11,0.04,6.16,0.05l0.06,0.07H0.08L0.14,85.87z"/>
			</g>
			<rect x="-21.97" y="-11.87" class="st5" width="134.27" height="108.73"/>
		</g>
	</g>
	<g>
		<path class="st8" d="M53.01,32.02c-1.03,0.01-2.07-0.01-3.1,0.02c-0.1,0.32-0.06,0.66-0.05,0.98c0,6.19,0,12.38,0,18.57
			c-0.01,0.49,0.23,1.03,0.73,1.18c0.75,0.23,1.54,0.05,2.3,0.12c0.27,0.06,0.54-0.14,0.51-0.43C53.38,45.73,53.4,39,53.39,32.28
			C53.44,32.04,53.18,32,53.01,32.02z"/>
		<path class="st8" d="M46.49,37.25c-0.8,0.05-1.6-0.04-2.4,0.03c-0.45,0.08-0.31,0.66-0.41,1c-0.57-0.36-1.15-0.69-1.77-0.93
			c-1.76-0.71-3.77-0.69-5.55-0.08c-1.76,0.59-3.24,1.87-4.19,3.45c-1.01,1.66-1.4,3.69-1.04,5.61c0.32,1.83,1.33,3.51,2.75,4.72
			c1.63,1.4,3.84,2.07,5.97,1.86c1.38-0.13,2.67-0.69,3.83-1.42c0.15,0.51,0.38,1.09,0.93,1.28c0.68,0.22,1.41,0.1,2.12,0.13
			c0.23,0.03,0.34-0.22,0.33-0.41c-0.03-4.96,0-9.92-0.01-14.88C47.06,37.28,46.73,37.21,46.49,37.25z M43.24,46.99
			c-0.61,1.24-1.79,2.18-3.14,2.49c-1.23,0.3-2.59,0.06-3.65-0.64c-1.01-0.66-1.75-1.72-2.01-2.89c-0.27-1.16-0.09-2.42,0.5-3.45
			c0.66-1.15,1.81-2.01,3.11-2.27c2.24-0.51,4.7,0.87,5.42,3.05C43.9,44.48,43.82,45.86,43.24,46.99z"/>
		<path class="st8" d="M29.52,49.51c-3.33,0-6.65,0-9.97,0c-0.45-0.01-0.91,0.03-1.35-0.03c0.39-0.61,0.88-1.16,1.32-1.73
			c3.2-4.02,6.37-8.07,9.6-12.07c0.62-0.79,0.95-1.78,1-2.78c0-0.22,0.07-0.59-0.22-0.64c-0.57-0.07-1.15-0.01-1.72-0.02
			c-4.67,0-9.35,0.02-14.02-0.01c-0.21,0-0.58,0-0.55,0.31c-0.01,0.98,0,1.96-0.01,2.93c-0.01,0.28,0.31,0.37,0.54,0.36
			c2.88,0.01,5.75-0.07,8.63,0c0.72,0.05,1.45-0.07,2.16,0.04c-0.44,0.67-0.99,1.26-1.47,1.9c-3.13,3.89-6.25,7.79-9.39,11.67
			c-0.71,0.86-1.09,2.02-0.94,3.14c0.05,0.24,0.32,0.33,0.54,0.31c4.87,0,9.75,0,14.63,0c0.48,0,1-0.07,1.37-0.41
			c0.67-0.65,0.4-1.65,0.47-2.48C30.19,49.64,29.81,49.47,29.52,49.51z"/>
		<path class="st8" d="M71.12,41.26c-0.72-1.46-1.88-2.69-3.29-3.5c-1.55-0.89-3.39-1.23-5.15-0.97c-1.98,0.28-3.83,1.34-5.1,2.89
			c-1.19,1.43-1.88,3.28-1.87,5.15c-0.03,1.88,0.65,3.74,1.84,5.19c1.22,1.51,3,2.58,4.92,2.9c1.84,0.31,3.78-0.04,5.4-0.98
			c1.74-0.99,3.08-2.64,3.7-4.54C72.22,45.39,72.06,43.14,71.12,41.26z M67.98,47.25c-0.61,1.1-1.69,1.93-2.91,2.24
			c-1.4,0.37-2.97,0.09-4.12-0.8c-1.63-1.2-2.3-3.49-1.63-5.39c0.51-1.58,1.93-2.8,3.55-3.11c1.19-0.24,2.47-0.03,3.5,0.62
			c1.05,0.65,1.81,1.72,2.09,2.92C68.74,44.91,68.58,46.19,67.98,47.25z"/>
	</g>
</g>
</svg>
