<svg width="62" height="37" viewBox="0 0 62 37" fill="none" xmlns="http://www.w3.org/2000/svg">
<g clip-path="url(#clip0)">
<path d="M16.2408 12.8888C15.9999 12.8765 15.8001 12.8334 15.5437 12.855C15.3276 12.8727 15.2192 12.8234 14.9674 12.8873C13.9644 13.1396 13.7863 13.0473 12.733 13.6758C8.95178 15.9383 5.6291 19.1824 2.45901 22.3442C2.12441 22.6789 1.42657 23.3389 1.03157 23.6782C0.93175 23.7582 0.806612 23.8004 0.678392 23.7974C0.497155 23.7897 0.303525 23.762 0.185024 23.5928C0.0827883 23.4466 -0.0163498 23.3997 0.0231505 23.1389C0.044837 22.9989 -0.0767621 23.2012 0.0874354 22.8474C1.14233 20.5687 2.54807 18.1108 3.73154 15.7783C3.89573 15.456 4.1126 15.0567 4.30003 14.7421C4.92197 14.0012 5.55707 13.3089 6.36412 12.7704C6.37109 12.7704 6.37806 12.7704 6.3858 12.7704C6.42608 12.7427 6.46325 12.7103 6.5074 12.6827L6.51437 12.6773C6.5469 12.6565 6.58331 12.6373 6.61506 12.6157C6.62281 12.6111 6.61971 12.6065 6.62513 12.5957C8.06496 11.6664 9.6016 11.1164 11.3334 11.1087C13.1667 11.1002 14.8187 11.6849 16.3081 12.7196C16.326 12.7314 16.3392 12.7489 16.3456 12.7692C16.3519 12.7896 16.3511 12.8114 16.3432 12.8312C16.3354 12.851 16.3209 12.8675 16.3022 12.878C16.2836 12.8885 16.2619 12.8923 16.2408 12.8888Z" fill="white"/>
<path d="M53.5319 25.2945L53.5412 25.2883C51.45 29.0579 49.7593 31.7204 48.4054 33.3944L48.3644 33.4444L48.3249 33.4936L48.2683 33.5621C48.2451 33.5906 48.2195 33.619 48.1986 33.6444C48.1614 33.686 48.1266 33.7267 48.0879 33.7737L48.0662 33.7975L48.0027 33.8698L47.8656 34.0206L47.8377 34.0491L47.7424 34.1498C47.665 34.2268 47.5937 34.3037 47.5225 34.3806L47.5031 34.3991C47.1478 34.7621 46.7523 35.0842 46.3243 35.3592H46.3018L46.1779 35.4484L46.0726 35.5107L46.0633 35.53C44.5391 36.5879 42.6989 37.1017 40.843 36.9876C38.987 36.8734 37.2247 36.1381 35.8435 34.9014L35.8304 34.8891L35.811 34.8707C34.736 33.9437 33.4635 32.492 31.8075 30.3026C31.2592 29.5779 30.59 28.6986 29.8798 27.7639L28.8202 26.3746C28.0674 25.3868 27.3068 24.3867 26.6253 23.4974C25.6556 22.2312 24.8439 21.1734 24.4373 20.6379L24.4434 20.6318L24.1561 20.2564C23.2786 19.1024 22.439 18 21.7768 17.1253C21.6451 16.9499 21.5181 16.7853 21.3895 16.6215L21.2346 16.4222C21.0751 16.2176 20.9248 16.0222 20.7699 15.8352L20.7498 15.8106L20.7304 15.7883C20.7103 15.7629 20.6886 15.7345 20.6661 15.7114C20.6104 15.6444 20.5631 15.5891 20.519 15.5398C20.3966 15.399 20.2781 15.2667 20.1619 15.1421C19.2015 13.9805 18.3805 13.115 17.62 12.4542L17.5781 12.4173C16.0033 11.0118 13.9935 10.1808 11.8798 10.0611C9.76605 9.94143 7.67426 10.5402 5.94878 11.7587C5.93174 11.7687 5.9147 11.7803 5.89844 11.7918C8.21424 7.61608 10.0452 4.77661 11.4695 3.14032C11.5276 3.0757 11.5849 3.01185 11.6415 2.95031L11.6624 2.928C12.186 2.36333 12.6584 1.95715 13.1549 1.64404H13.1773L13.302 1.5548L13.4066 1.49249L13.4151 1.47403C14.9392 0.41597 16.7793 -0.0978324 18.6352 0.0164537C20.4911 0.13074 22.2532 0.866368 23.6341 2.10331L23.6682 2.13255C23.7355 2.19101 23.8037 2.25102 23.8719 2.31333C24.0087 2.43744 24.1496 2.57027 24.2947 2.71182C24.4398 2.85337 24.5878 3.00364 24.7385 3.16263C25.575 4.0404 26.5323 5.19665 27.6709 6.70139C28.2076 7.40991 28.8621 8.27075 29.5584 9.18467C29.5862 9.22237 29.6149 9.2616 29.6428 9.29622L29.6745 9.33776L30.511 10.4355L32.5247 13.0681L32.8516 13.4966L35.0009 16.3037L34.9924 16.3099L35.3262 16.7453L35.6437 17.163C36.3842 18.1331 37.1076 19.0863 37.707 19.8763C37.9843 20.2441 38.2453 20.5795 38.497 20.9033L38.5915 21.0249C38.6248 21.068 38.662 21.1164 38.7031 21.1626L38.7085 21.1688L38.7441 21.2157L38.7534 21.2265C38.7704 21.2472 38.7867 21.268 38.8037 21.2872C39.9911 22.7735 40.9615 23.8259 41.8561 24.6021C41.8692 24.6156 41.8832 24.6282 41.8979 24.6398C43.4735 26.0468 45.4849 26.8784 47.6002 26.9976C49.7155 27.1167 51.8086 26.5163 53.5343 25.2953L53.5319 25.2945Z" fill="white"/>
<path d="M58.9187 14.9505C58.9195 15.038 58.9029 15.1248 58.8699 15.2059C58.6422 15.7167 56.9244 18.9039 55.6944 21.3256C55.5008 21.7103 55.2909 22.0842 55.064 22.4488C54.1802 23.5058 53.5552 23.9874 53.0951 24.279H53.0719L52.9464 24.3697L52.8427 24.432L52.8334 24.4497C51.3422 25.4874 49.546 26.0033 47.7274 25.9163C45.9088 25.8292 44.1709 25.1442 42.7871 23.9689C43.1605 24.049 43.5414 24.0889 43.9233 24.0882C44.1169 24.0885 44.3103 24.0783 44.5027 24.0574C45.2802 23.9691 46.0292 23.714 46.6976 23.3096C49.0212 21.9488 51.4276 20.0109 55.3211 16.6275L55.9407 16.089L56.0956 15.9552C56.9011 15.2559 57.5114 14.7359 57.8437 14.4581C57.8607 14.4466 57.8747 14.4335 57.8879 14.4243C57.9964 14.3469 58.1267 14.3052 58.2604 14.305C58.3465 14.3039 58.432 14.3197 58.5119 14.3515C58.5919 14.3833 58.6647 14.4305 58.7262 14.4903C58.7878 14.5501 58.8368 14.6215 58.8705 14.7002C58.9042 14.7789 58.9219 14.8634 58.9226 14.9489L58.9187 14.9505Z" fill="white"/>
<path d="M59.6207 12.5934C60.9344 12.5934 61.9993 11.5356 61.9993 10.2309C61.9993 8.92608 60.9344 7.86835 59.6207 7.86835C58.3071 7.86835 57.2422 8.92608 57.2422 10.2309C57.2422 11.5356 58.3071 12.5934 59.6207 12.5934Z" fill="white"/>
</g>
<defs>
<clipPath id="clip0">
<rect width="62" height="37" fill="black"/>
</clipPath>
</defs>
</svg>
