<svg xmlns="http://www.w3.org/2000/svg" viewBox="0 0 368.33 265.6"><defs><style>.cls-1{fill:#231f20;}.cls-2{fill:#2e2b2d;}</style></defs><g id="Layer_2" data-name="Layer 2"><g id="Full_Logo" data-name="Full Logo"><path class="cls-1" d="M88.88,2.7a88.88,88.88,0,1,0,88.88,88.88A88.88,88.88,0,0,0,88.88,2.7Zm0,134.72a45.84,45.84,0,1,1,45.83-45.84A45.84,45.84,0,0,1,88.88,137.42Z"/><path class="cls-2" d="M30.66,222.69H42.29V265H30.66Z"/><path class="cls-2" d="M59.16,224.29a5.6,5.6,0,0,1,1.62,4.18,9.88,9.88,0,0,1-.3,2.41,31.13,31.13,0,0,1-1.26,3.62l-3.5,8.68h-6l2.59-9.52a5.22,5.22,0,0,1-2.35-2,5.79,5.79,0,0,1-.85-3.2,5.56,5.56,0,0,1,1.66-4.18,5.76,5.76,0,0,1,4.19-1.6A5.68,5.68,0,0,1,59.16,224.29Z"/><path class="cls-2" d="M129.68,229.2q4.38,4.38,4.38,13.14V265H122.57v-20.9q0-4.71-1.95-7a6.84,6.84,0,0,0-5.55-2.32,8.21,8.21,0,0,0-6.41,2.61c-1.57,1.75-2.35,4.33-2.35,7.77V265H94.83v-20.9q0-9.35-7.51-9.35A8.1,8.1,0,0,0,81,237.37c-1.57,1.75-2.36,4.33-2.36,7.77V265H67.15v-39.6h11V230a14.38,14.38,0,0,1,5.41-3.83,18.23,18.23,0,0,1,7-1.33,17.11,17.11,0,0,1,7.58,1.66,13.4,13.4,0,0,1,5.44,4.82,16.26,16.26,0,0,1,6.15-4.78,19.38,19.38,0,0,1,8.13-1.7Q125.3,224.82,129.68,229.2Z"/><path class="cls-2" d="M251.21,228.24q4.53,4.41,4.53,13.1V264H244.26v-20.9q0-4.71-2.06-7a7.57,7.57,0,0,0-6-2.32,9.16,9.16,0,0,0-6.92,2.69q-2.56,2.69-2.57,8V264H215.26v-39.6h11v4.64a15.09,15.09,0,0,1,5.67-3.86,19.74,19.74,0,0,1,7.44-1.37Q246.68,223.82,251.21,228.24Z"/><rect class="cls-2" x="295.3" y="225.41" width="11.48" height="39.6"/><circle class="cls-2" cx="301.04" cy="216.95" r="5.74"/><circle class="cls-2" cx="362.59" cy="259.86" r="5.74"/><path class="cls-2" d="M339.14,263.1A12,12,0,0,1,335,265a21,21,0,0,1-5.11.62q-7.14,0-11-3.6t-3.83-10.6V216.65h11.48v9.65h9.79v8.83h-9.79v16.12a5.51,5.51,0,0,0,1.25,3.86,4.66,4.66,0,0,0,3.61,1.36,7.89,7.89,0,0,0,4.71-1.47Z"/><path class="cls-1" d="M187.43,222.81a21.11,21.11,0,1,0,21.1,21.11A21.11,21.11,0,0,0,187.43,222.81Zm0,32a10.89,10.89,0,1,1,10.88-10.88A10.88,10.88,0,0,1,187.43,254.8Z"/><path class="cls-1" d="M88.94,2.64a88.88,88.88,0,1,0,88.88,88.88A88.88,88.88,0,0,0,88.94,2.64Zm0,134.72a45.84,45.84,0,1,1,45.83-45.84A45.84,45.84,0,0,1,88.94,137.36Z"/><path class="cls-1" d="M337.91,55.09a27.74,27.74,0,0,1-24.32-14.38V96.55L236.09,3H195.21V178.56h48.65V85l77.5,93.55h40.88V40.71A27.75,27.75,0,0,1,337.91,55.09Z"/><circle class="cls-1" cx="337.92" cy="24.33" r="24.33"/></g></g></svg>